<?xml version="1.0" standalone="no"?>
<!DOCTYPE svg PUBLIC "-//W3C//DTD SVG 20010904//EN"
 "http://www.w3.org/TR/2001/REC-SVG-20010904/DTD/svg10.dtd">
<svg version="1.0" xmlns="http://www.w3.org/2000/svg"
 width="700.000000pt" height="700.000000pt" viewBox="0 0 700.000000 700.000000"
 preserveAspectRatio="xMidYMid meet">
<metadata>
Created by potrace 1.14, written by Peter Selinger 2001-2017
</metadata>
<g transform="translate(0.000000,700.000000) scale(0.100000,-0.100000)"
fill="#000000" stroke="none">
<path d="M3340 6994 c-1069 -58 -2015 -563 -2649 -1413 -122 -164 -212 -310
-311 -506 -198 -392 -308 -768 -361 -1235 -15 -135 -15 -545 0 -680 75 -662
297 -1238 672 -1741 597 -801 1475 -1297 2474 -1400 153 -16 516 -16 665 0
664 68 1252 297 1773 689 787 593 1275 1464 1378 2462 16 148 16 512 0 660
-114 1107 -702 2055 -1638 2641 -429 269 -930 443 -1453 503 -130 15 -437 26
-550 20z m500 -534 c126 -15 360 -62 488 -99 811 -234 1497 -817 1861 -1582
365 -767 384 -1651 55 -2438 -278 -661 -811 -1219 -1465 -1530 -767 -365
-1651 -384 -2438 -55 -1156 485 -1897 1680 -1813 2925 41 601 240 1142 593
1609 514 680 1285 1106 2134 1179 129 11 449 6 585 -9z"/>
<path d="M3312 5073 c-100 -467 -218 -1011 -261 -1211 l-79 -363 79 -362 c43
-199 160 -746 261 -1214 101 -469 185 -853 188 -853 3 0 87 384 188 853 101
468 218 1015 261 1214 l79 362 -79 363 c-43 200 -161 744 -261 1211 -100 466
-185 847 -188 847 -3 0 -88 -381 -188 -847z m294 -1332 c47 -21 106 -77 131
-124 25 -46 25 -179 0 -229 -48 -95 -126 -143 -237 -143 -86 0 -133 18 -185
72 -55 56 -70 98 -70 188 1 90 13 123 72 181 52 52 105 74 183 74 42 0 79 -7
106 -19z"/>
</g>
</svg>
